<svg width="64" height="62" viewBox="0 0 64 62" fill="none" xmlns="http://www.w3.org/2000/svg">
<path d="M31.8997 59.1906C45.7303 59.1906 56.9422 48.2174 56.9422 34.6813C56.9422 21.1451 45.7303 10.1719 31.8997 10.1719C18.0691 10.1719 6.85718 21.1451 6.85718 34.6813C6.85718 48.2174 18.0691 59.1906 31.8997 59.1906Z" fill="#6C63FF"/>
<path d="M31.8994 53.7657C42.6565 53.7657 51.3769 45.2213 51.3769 34.6813C51.3769 24.1413 42.6565 15.5969 31.8994 15.5969C21.1422 15.5969 12.4219 24.1413 12.4219 34.6813C12.4219 45.2213 21.1422 53.7657 31.8994 53.7657Z" fill="white"/>
<path d="M10.9311 46.7906L8.74487 60.0625H10.633C11.8255 60.0625 12.223 58.7063 13.018 57.0594C14.0117 54.9282 16.3967 49.4063 16.3967 49.4063L10.9311 46.7906Z" fill="#6C63FF"/>
<path d="M52.7683 46.7906L55.054 60.0625H53.1658C51.9733 60.0625 51.5758 58.7063 50.7808 57.0594C49.7871 54.9282 47.4021 49.4063 47.4021 49.4063L52.7683 46.7906Z" fill="#6C63FF"/>
<path d="M13.2171 9.88123L19.0802 15.5968L15.9996 18.6968L10.1365 12.8844L13.2171 9.88123Z" fill="#6C63FF"/>
<path d="M50.5819 9.88123L44.7188 15.5968L47.7994 18.6968L53.6625 12.8844L50.5819 9.88123Z" fill="#6C63FF"/>
<path d="M5.66442 22.8625L23.1544 5.52187C20.9682 3.29375 17.8875 1.9375 14.4094 1.9375C7.55255 1.9375 1.98755 7.45937 1.98755 14.1437C1.98755 17.5344 3.3788 20.6344 5.66442 22.8625Z" fill="#6C63FF"/>
<path d="M40.2468 5.61875L57.9356 22.7656C60.2212 20.5375 61.6124 17.5344 61.6124 14.1438C61.6124 7.45938 56.0475 1.9375 49.0912 1.9375C45.6131 2.03438 42.5325 3.39063 40.2468 5.61875Z" fill="#6C63FF"/>
<path d="M20.4709 45.1438L30.7066 34.9719L31.8991 36.1344L21.6634 46.2094L20.4709 45.1438Z" fill="#6C63FF"/>
<path d="M31.8998 38.2656C33.9305 38.2656 35.5766 36.6608 35.5766 34.6812C35.5766 32.7016 33.9305 31.0968 31.8998 31.0968C29.8691 31.0968 28.2229 32.7016 28.2229 34.6812C28.2229 36.6608 29.8691 38.2656 31.8998 38.2656Z" fill="#6C63FF"/>
<path d="M30.0115 21.0219H33.6884V35.5531H30.0115V21.0219Z" fill="#6C63FF"/>
<path d="M33.6885 32.8406H41.1416V36.4249H33.6885V32.8406Z" fill="#6C63FF"/>
</svg>
