<svg width="51" height="60" viewBox="0 0 51 60" fill="none" xmlns="http://www.w3.org/2000/svg">
<g clip-path="url(#clip0_168_152)">
<path d="M38.1486 0H12.8487C11.7753 0.000496741 10.746 0.50229 9.98695 1.39512C9.2279 2.28795 8.80117 3.49878 8.80054 4.76156V55.2412C8.80159 56.5039 9.22845 57.7144 9.98742 58.6071C10.7464 59.4999 11.7754 60.0018 12.8487 60.0028H38.1486C39.222 60.0016 40.2512 59.4996 41.0105 58.607C41.7698 57.7145 42.1973 56.5041 42.1992 55.2412V4.76906C42.1979 3.50603 41.7706 2.2952 41.0112 1.40245C40.2518 0.509699 39.2222 0.00799589 38.1486 0.0075" fill="#6C63FF"/>
<path d="M35.5237 3.63382H15.4743C14.624 3.63381 13.8084 4.03058 13.2064 4.73709C12.6043 5.4436 12.265 6.40217 12.2629 7.40257V47.4029C12.2646 48.4034 12.6038 49.3623 13.2059 50.0689C13.808 50.7755 14.6239 51.1721 15.4743 51.1716H35.5237C37.2928 51.1716 38.7272 49.4748 38.7272 47.4029V7.39882C38.7272 5.31757 37.2888 3.63007 35.5237 3.63007" fill="white"/>
<path d="M28.1296 55.8984C28.1296 57.2883 26.9534 58.4211 25.5023 58.4211C24.0512 58.4211 22.875 57.289 22.875 55.8984C22.875 54.5078 24.0512 53.3758 25.5023 53.3758C26.9534 53.3758 28.1296 54.5078 28.1296 55.8984Z" fill="white"/>
<path d="M18.0053 55.8984C18.0107 56.1438 17.965 56.3877 17.8709 56.616C17.7768 56.8442 17.6362 57.0521 17.4574 57.2275C17.2785 57.4029 17.065 57.5423 16.8294 57.6375C16.5937 57.7328 16.3406 57.7819 16.0849 57.782C15.8292 57.7822 15.576 57.7334 15.3402 57.6384C15.1044 57.5435 14.8907 57.4044 14.7117 57.2291C14.5326 57.0539 14.3917 56.8462 14.2974 56.6181C14.203 56.39 14.157 56.1461 14.162 55.9007C14.1719 55.418 14.3786 54.9582 14.7376 54.6201C15.0967 54.282 15.5795 54.0925 16.0825 54.0922C16.5855 54.0919 17.0685 54.2808 17.428 54.6185C17.7875 54.9562 17.9948 55.4157 18.0053 55.8984Z" fill="white"/>
<path d="M32.9988 55.8984C32.9914 56.1451 33.0357 56.3907 33.1289 56.6206C33.2221 56.8506 33.3624 57.0602 33.5416 57.2372C33.7207 57.4142 33.935 57.5549 34.1718 57.6509C34.4086 57.747 34.663 57.7965 34.9201 57.7965C35.1772 57.7965 35.4316 57.747 35.6684 57.6509C35.9052 57.5549 36.1195 57.4142 36.2986 57.2372C36.4778 57.0602 36.6181 56.8506 36.7113 56.6206C36.8046 56.3907 36.8488 56.1451 36.8414 55.8984C36.8414 55.4093 36.639 54.9403 36.2786 54.5944C35.9183 54.2486 35.4297 54.0543 34.9201 54.0543C34.4106 54.0543 33.9219 54.2486 33.5616 54.5944C33.2013 54.9403 32.9988 55.4093 32.9988 55.8984Z" fill="white"/>
</g>
<defs>
<clipPath id="clip0_168_152">
<rect width="51" height="60" fill="white"/>
</clipPath>
</defs>
</svg>
