<svg width="95" height="26" viewBox="0 0 95 26" fill="none" xmlns="http://www.w3.org/2000/svg">
<path d="M0.350098 20V2.49995H3.0251L14.0001 15.975H12.6751V2.49995H15.9001V20H13.2251L2.2501 6.52495H3.5751V20H0.350098Z" fill="#6C63FF"/>
<path d="M20.2894 20V6.64995H23.4144V20H20.2894ZM21.8644 4.44995C21.281 4.44995 20.7977 4.26662 20.4144 3.89995C20.0477 3.53328 19.8644 3.09162 19.8644 2.57495C19.8644 2.04162 20.0477 1.59995 20.4144 1.24995C20.7977 0.883284 21.281 0.699951 21.8644 0.699951C22.4477 0.699951 22.9227 0.874951 23.2894 1.22495C23.6727 1.55828 23.8644 1.98328 23.8644 2.49995C23.8644 3.04995 23.681 3.51662 23.3144 3.89995C22.9477 4.26662 22.4644 4.44995 21.8644 4.44995Z" fill="#6C63FF"/>
<path d="M35.0909 6.49995C36.1576 6.49995 37.1076 6.70828 37.9409 7.12495C38.7909 7.54162 39.4576 8.18328 39.9409 9.04995C40.4243 9.89995 40.6659 11 40.6659 12.35V20H37.5409V12.75C37.5409 11.5666 37.2576 10.6833 36.6909 10.1C36.1409 9.51662 35.3659 9.22495 34.3659 9.22495C33.6326 9.22495 32.9826 9.37495 32.4159 9.67495C31.8493 9.97495 31.4076 10.425 31.0909 11.025C30.7909 11.6083 30.6409 12.35 30.6409 13.25V20H27.5159V6.64995H30.4909V10.25L29.9659 9.14995C30.4326 8.29995 31.1076 7.64995 31.9909 7.19995C32.8909 6.73328 33.9243 6.49995 35.0909 6.49995Z" fill="#6C63FF"/>
<path d="M50.9296 20.175C49.4463 20.175 48.1463 19.8833 47.0296 19.3C45.9296 18.7 45.0713 17.8833 44.4546 16.85C43.8546 15.8166 43.5546 14.6416 43.5546 13.325C43.5546 11.9916 43.8463 10.8166 44.4296 9.79995C45.0296 8.76662 45.8463 7.95828 46.8796 7.37495C47.9296 6.79162 49.1213 6.49995 50.4546 6.49995C51.7546 6.49995 52.9129 6.78328 53.9296 7.34995C54.9463 7.91662 55.7463 8.71662 56.3296 9.74995C56.9129 10.7833 57.2046 12 57.2046 13.4C57.2046 13.5333 57.1963 13.6833 57.1796 13.85C57.1796 14.0166 57.1713 14.175 57.1546 14.325H46.0296V12.25H55.5046L54.2796 12.9C54.2963 12.1333 54.1379 11.4583 53.8046 10.875C53.4713 10.2916 53.0129 9.83328 52.4296 9.49995C51.8629 9.16662 51.2046 8.99995 50.4546 8.99995C49.6879 8.99995 49.0129 9.16662 48.4296 9.49995C47.8629 9.83328 47.4129 10.3 47.0796 10.9C46.7629 11.4833 46.6046 12.175 46.6046 12.975V13.475C46.6046 14.275 46.7879 14.9833 47.1546 15.6C47.5213 16.2166 48.0379 16.6916 48.7046 17.025C49.3713 17.3583 50.1379 17.525 51.0046 17.525C51.7546 17.525 52.4296 17.4083 53.0296 17.175C53.6296 16.9416 54.1629 16.575 54.6296 16.075L56.3046 18C55.7046 18.7 54.9463 19.2416 54.0296 19.625C53.1296 19.9916 52.0963 20.175 50.9296 20.175Z" fill="#6C63FF"/>
<path d="M60.2063 20V1.44995H63.3313V20H60.2063Z" fill="#6C63FF"/>
<path d="M75.6579 20V17.3L75.4829 16.725V12C75.4829 11.0833 75.2079 10.375 74.6579 9.87495C74.1079 9.35828 73.2746 9.09995 72.1579 9.09995C71.4079 9.09995 70.6662 9.21662 69.9329 9.44995C69.2162 9.68328 68.6079 10.0083 68.1079 10.425L66.8829 8.14995C67.5996 7.59995 68.4496 7.19162 69.4329 6.92495C70.4329 6.64162 71.4662 6.49995 72.5329 6.49995C74.4662 6.49995 75.9579 6.96662 77.0079 7.89995C78.0746 8.81662 78.6079 10.2416 78.6079 12.175V20H75.6579ZM71.4579 20.175C70.4579 20.175 69.5829 20.0083 68.8329 19.675C68.0829 19.325 67.4996 18.85 67.0829 18.25C66.6829 17.6333 66.4829 16.9416 66.4829 16.175C66.4829 15.425 66.6579 14.75 67.0079 14.15C67.3746 13.55 67.9662 13.075 68.7829 12.725C69.5996 12.375 70.6829 12.2 72.0329 12.2H75.9079V14.275H72.2579C71.1912 14.275 70.4746 14.45 70.1079 14.8C69.7412 15.1333 69.5579 15.55 69.5579 16.05C69.5579 16.6166 69.7829 17.0666 70.2329 17.4C70.6829 17.7333 71.3079 17.9 72.1079 17.9C72.8746 17.9 73.5579 17.725 74.1579 17.375C74.7746 17.025 75.2162 16.5083 75.4829 15.825L76.0079 17.7C75.7079 18.4833 75.1662 19.0916 74.3829 19.525C73.6162 19.9583 72.6412 20.175 71.4579 20.175Z" fill="#6C63FF"/>
<path d="M83.4743 25.025C82.8243 25.025 82.1743 24.9166 81.5243 24.7C80.8743 24.4833 80.3326 24.1833 79.8993 23.8L81.1493 21.5C81.466 21.7833 81.8243 22.0083 82.2243 22.175C82.6243 22.3416 83.0327 22.425 83.4493 22.425C84.016 22.425 84.4743 22.2833 84.8243 22C85.1743 21.7166 85.4993 21.2416 85.7993 20.575L86.5743 18.825L86.8243 18.45L91.8743 6.64995H94.8743L88.6243 21.075C88.2076 22.075 87.741 22.8666 87.2243 23.45C86.7243 24.0333 86.1576 24.4416 85.5243 24.675C84.9076 24.9083 84.2243 25.025 83.4743 25.025ZM86.2243 20.475L80.1993 6.64995H83.4493L88.3493 18.175L86.2243 20.475Z" fill="#6C63FF"/>
</svg>
