<svg width="97" height="25" viewBox="0 0 97 25" fill="none" xmlns="http://www.w3.org/2000/svg">
<path d="M12.125 2.175H16.125V19.675H12.8L4.07495 9.05V19.675H0.0749512V2.175H3.42495L12.125 12.8V2.175Z" fill="white"/>
<path d="M21.9404 4.35C20.4904 4.35 19.5154 3.4 19.5154 2.175C19.5154 0.950001 20.4904 0 21.9404 0C23.3904 0 24.3654 0.9 24.3654 2.1C24.3654 3.4 23.3904 4.35 21.9404 4.35ZM19.9904 19.675V6.225H23.8904V19.675H19.9904Z" fill="white"/>
<path d="M35.6849 6.025C38.8599 6.025 41.2599 7.875 41.2599 11.975V19.675H37.3599V12.575C37.3599 10.4 36.3599 9.4 34.6349 9.4C32.7599 9.4 31.4099 10.55 31.4099 13.025V19.675H27.5099V6.225H31.2349V7.8C32.2849 6.65 33.8599 6.025 35.6849 6.025Z" fill="white"/>
<path d="M58.1166 13C58.1166 13.3 58.0666 13.725 58.0416 14.05H47.8666C48.2416 15.725 49.6666 16.75 51.7166 16.75C53.1416 16.75 54.1666 16.325 55.0916 15.45L57.1666 17.7C55.9166 19.125 54.0416 19.875 51.6166 19.875C46.9666 19.875 43.9416 16.95 43.9416 12.95C43.9416 8.925 47.0166 6.025 51.1166 6.025C55.0666 6.025 58.1166 8.675 58.1166 13ZM51.1416 8.975C49.3666 8.975 48.0916 10.05 47.8166 11.775H54.4416C54.1666 10.075 52.8916 8.975 51.1416 8.975Z" fill="white"/>
<path d="M60.713 19.675V1.125H64.613V19.675H60.713Z" fill="white"/>
<path d="M73.6576 6.025C77.7576 6.025 80.1326 7.925 80.1326 12V19.675H76.4826V18C75.7576 19.225 74.3576 19.875 72.3826 19.875C69.2326 19.875 67.3576 18.125 67.3576 15.8C67.3576 13.425 69.0326 11.775 73.1326 11.775H76.2326C76.2326 10.1 75.2326 9.125 73.1326 9.125C71.7076 9.125 70.2326 9.6 69.2576 10.375L67.8576 7.65C69.3326 6.6 71.5076 6.025 73.6576 6.025ZM73.3576 17.25C74.6576 17.25 75.7826 16.65 76.2326 15.425V14.05H73.5576C71.7326 14.05 71.1576 14.725 71.1576 15.625C71.1576 16.6 71.9826 17.25 73.3576 17.25Z" fill="white"/>
<path d="M93.0181 6.225H96.7681L90.6931 20.5C89.3931 23.75 87.5431 24.725 85.1181 24.725C83.7431 24.725 82.2431 24.275 81.3681 23.5L82.7931 20.725C83.3931 21.25 84.2181 21.575 84.9931 21.575C86.0681 21.575 86.6681 21.1 87.1931 19.9L87.2431 19.775L81.4181 6.225H85.4431L89.2181 15.35L93.0181 6.225Z" fill="white"/>
</svg>
