<svg width="75" height="73" viewBox="0 0 75 73" fill="none" xmlns="http://www.w3.org/2000/svg">
<path d="M18.9473 3.17554H59.2104V19.0451H18.9473V3.17554Z" fill="white"/>
<path d="M21.3561 13.5087C20.9391 13.5087 20.5811 13.5328 20.5811 14.1637C20.5811 14.4719 20.5675 14.7753 20.5856 15.0836C20.5901 15.2521 20.6128 15.4399 20.6899 15.5844C20.7714 15.7337 20.8666 15.7337 20.9981 15.753C21.1703 15.7819 21.3153 15.7867 21.4921 15.7867C21.8955 15.7867 22.308 15.5122 22.453 15.0787C22.5256 14.8476 22.5301 14.5779 22.4213 14.2745C22.2309 13.7832 21.7641 13.5087 21.3561 13.5087Z" fill="#6C63FF"/>
<path d="M32.2305 12.7384L32.2169 12.6758C32.1353 12.3194 32.0582 11.963 31.9812 11.6067C31.9222 11.4863 31.8814 11.3129 31.7319 11.3562C31.6276 11.3851 31.5868 11.5248 31.5596 11.6018L31.5279 11.6404C31.4554 12.1316 31.3738 12.6228 31.2877 13.1141L31.2786 13.167L31.2514 13.2874C31.2378 13.4319 31.2197 13.5908 31.265 13.7305L31.3738 13.875L31.5506 13.9376L31.6729 13.9858H32.0945C32.6067 13.8268 32.2939 13.1622 32.2441 12.7818L32.2305 12.7384Z" fill="#6C63FF"/>
<path d="M21.007 10.6964C21.4104 10.7831 21.9362 10.6338 22.1719 10.1426C22.3442 9.7814 22.3124 9.35277 22.1085 9.0301L22.0359 8.92415C21.8728 8.72669 21.6371 8.67372 21.424 8.66409C21.211 8.64964 20.9663 8.66409 20.7668 8.77485L20.6671 8.89525C20.6127 9.00602 20.5674 9.15532 20.5447 9.31425C20.4858 9.69471 20.5311 10.1522 20.6716 10.4316C20.7487 10.5809 20.8665 10.6675 21.007 10.6964Z" fill="#6C63FF"/>
<path d="M57.8751 0H16.0302C13.7276 0 11.842 2.00346 11.842 4.44998V60.3059H29.9362V50.857C29.9362 49.494 30.9832 48.3767 32.2659 48.3767H41.6258C42.9085 48.3767 43.9601 49.494 43.9601 50.857V60.3059H62.0542V4.44998C62.0633 2.00346 60.1777 0 57.8751 0ZM23.9849 42.795H18.088V35.2339H23.9849V42.795ZM23.9849 31.2269H18.088V23.6658H23.9849V31.2269ZM25.6801 15.835C25.3039 16.7789 24.6376 17.5928 23.7854 17.9829C22.7792 18.4453 21.6914 18.4983 20.6217 18.4694C20.0143 18.4549 19.1894 18.5031 18.6681 18.1082C17.6664 17.3424 17.8477 16.2733 17.8341 15.0982C17.8205 14.0483 17.8205 12.9984 17.7888 11.9533C17.7616 10.9853 17.7752 10.0414 17.7933 9.09261C17.8069 8.39429 17.6302 7.46962 18.0834 6.8917C18.8404 5.91886 20.2817 5.89478 21.3469 5.98147C23.0829 6.12595 25.2177 7.03617 24.9866 9.48752C24.9458 9.84872 24.8415 10.2292 24.6693 10.5278C24.488 10.8456 24.1118 11.2261 24.2886 11.6644C24.4925 12.1604 25.109 12.4301 25.39 12.9117C25.7299 13.4992 25.8886 14.0723 25.8976 14.6117C25.9067 15.0356 25.8296 15.4545 25.6801 15.835ZM34.5458 42.795H28.6489V35.2339H34.5458V42.795ZM34.5458 31.2269H28.6489V23.6658H34.5458V31.2269ZM35.0127 18.4212C34.5096 18.556 33.5124 18.4453 33.2812 17.8674C32.9594 17.0583 33.109 16.1192 32.0257 15.9699C31.5181 15.8976 30.7838 16.1336 30.5707 16.6682C30.3532 17.2268 30.5254 17.9155 29.9634 18.296C29.5826 18.556 29.0478 18.5946 28.6081 18.5175C27.62 18.349 27.3843 17.5736 27.5294 16.6104C27.6019 16.1432 27.6971 15.6761 27.8104 15.2137C28.028 14.2746 28.2999 13.3451 28.4994 12.406C28.7078 11.4236 28.862 10.4315 29.1158 9.45381C29.56 7.71523 30.3713 5.42282 32.5288 6.19338C33.4535 6.52086 33.7118 7.60928 34.011 8.47616C34.4461 9.72832 34.6184 11.1057 34.8903 12.406C35.0898 13.3451 35.3572 14.2746 35.5793 15.2137C35.7062 15.7724 35.9555 16.6104 35.883 17.2991C35.8286 17.8288 35.5974 18.2575 35.0127 18.4212ZM45.1068 42.795H39.2099V35.2339H45.1068V42.795ZM45.1068 31.2269H39.2099V23.6658H45.1068V31.2269ZM46.6116 14.9296C46.6026 15.3004 46.5844 15.7387 46.5255 16.1769C46.4394 16.856 46.1946 18.007 45.4014 18.0889C45.1431 18.1178 44.862 18.0937 44.6354 18.0215C43.3708 17.6266 43.1532 16.1769 42.4008 15.1848C42.2059 14.9296 42.07 14.6599 41.9204 14.3854C41.7481 14.0724 41.4037 13.4559 41.0139 13.4029C40.5334 13.3355 40.6422 14.0483 40.6467 14.3998C40.6603 15.4594 40.9912 17.7181 39.8399 18.2526C38.1311 19.0473 37.7051 16.5815 37.6779 15.4545C37.6416 14.0483 37.492 12.642 37.492 11.2357C37.492 10.1377 37.3787 7.80674 38.2852 7.0121C39.7538 5.72622 40.6331 7.0747 41.5668 8.22573C41.9929 8.75549 42.2694 9.29969 42.6275 9.88243C42.8405 10.2292 43.4025 10.6048 43.5748 10.0462C43.8649 9.13113 43.5612 7.98493 44.0144 7.13731C44.572 6.10187 46.1629 6.37638 46.5799 7.41182C46.657 7.59965 46.6796 7.9175 46.7023 8.13422C46.947 10.3737 46.6479 12.6709 46.6116 14.9296ZM55.6723 42.795H49.7708V35.2339H55.6723V42.795ZM55.6723 31.2269H49.7708V23.6658H55.6723V31.2269ZM56.6196 17.4291C56.3613 18.0263 55.6224 18.6187 54.9924 18.3682C54.2763 18.0841 53.9182 17.3087 53.6462 16.6008C53.3879 15.9169 53.0796 15.1848 52.4904 14.737C52.1913 14.5058 51.942 14.631 51.738 14.8718C50.9267 15.8109 52.2411 17.7373 50.8904 18.3682C50.5731 18.5127 50.1153 18.4983 49.7754 18.4597C48.13 18.2767 48.4745 16.5141 48.4655 15.2234C48.4564 14.1157 48.4564 13.0176 48.4201 11.934C48.3884 10.942 48.4065 9.98838 48.4292 9.03963C48.4337 8.63509 48.4609 8.29797 48.5063 7.89824C48.5606 7.39256 48.5199 6.80982 48.9867 6.47752C49.4218 6.1693 50.0337 6.24635 50.5097 6.3812C51.1352 6.55939 51.1352 6.81464 51.3437 7.44554C51.4978 7.92232 51.5159 8.47616 51.525 8.98184C51.534 9.28043 51.5839 9.69461 51.9329 9.69942C52.291 9.69942 52.5947 9.05408 52.7986 8.80365C52.9935 8.55803 53.2156 8.33649 53.3335 8.04272C53.7459 7.05062 55.0785 6.10187 56.0258 7.03618C56.8462 7.84045 56.2162 8.96257 55.6632 9.70905C55.1601 10.3929 54.2763 11.149 54.5981 12.1219C54.9879 13.3162 55.8173 14.3517 56.2933 15.5123C56.4428 15.8687 56.6604 16.36 56.7057 16.8175C56.7148 17.0294 56.7012 17.2413 56.6196 17.4291Z" fill="#6C63FF"/>
</svg>
